<svg width="153" height="42" viewBox="0 0 153 42" fill="none" xmlns="http://www.w3.org/2000/svg">
<path d="M10.25 9.54L8.49 4.73C8.40333 4.51667 8.31333 4.26333 8.22 3.97C8.12667 3.67667 8.03333 3.36 7.94 3.02C7.85333 3.36 7.76333 3.68 7.67 3.98C7.57667 4.27333 7.48667 4.53 7.4 4.75L5.65 9.54H10.25ZM15 15H12.92C12.6867 15 12.4967 14.9433 12.35 14.83C12.2033 14.71 12.0933 14.5633 12.02 14.39L10.94 11.44H4.95L3.87 14.39C3.81667 14.5433 3.71333 14.6833 3.56 14.81C3.40667 14.9367 3.21667 15 2.99 15H0.89L6.58 0.539999H9.32L15 15ZM18.5572 0.139999V8.65H19.0172C19.1839 8.65 19.3139 8.63 19.4072 8.59C19.5072 8.54333 19.6072 8.45333 19.7072 8.32L22.2572 5.17C22.3639 5.03 22.4805 4.92333 22.6072 4.85C22.7405 4.77667 22.9105 4.74 23.1172 4.74H25.3772L22.1872 8.55C21.9605 8.85 21.7139 9.08 21.4472 9.24C21.5872 9.34 21.7105 9.45667 21.8172 9.59C21.9305 9.72333 22.0372 9.86667 22.1372 10.02L25.5572 15H23.3272C23.1339 15 22.9672 14.97 22.8272 14.91C22.6872 14.8433 22.5705 14.7267 22.4772 14.56L19.8572 10.67C19.7639 10.5167 19.6672 10.4167 19.5672 10.37C19.4672 10.3233 19.3172 10.3 19.1172 10.3H18.5572V15H16.0872V0.139999H18.5572ZM41.4208 4.74L38.1608 15H36.1808C35.9541 15 35.7974 14.8533 35.7108 14.56L33.8708 8.63C33.8108 8.43 33.7541 8.23333 33.7008 8.04C33.6541 7.84 33.6141 7.64 33.5808 7.44C33.5408 7.64 33.4941 7.84333 33.4408 8.05C33.3941 8.25 33.3408 8.45 33.2808 8.65L31.4108 14.56C31.3308 14.8533 31.1541 15 30.8808 15H28.9808L25.7308 4.74H27.7008C27.8808 4.74 28.0341 4.78333 28.1608 4.87C28.2874 4.95667 28.3708 5.06667 28.4108 5.2L29.8808 10.68C29.9541 10.98 30.0174 11.2733 30.0708 11.56C30.1308 11.8467 30.1808 12.1333 30.2208 12.42C30.2941 12.1333 30.3708 11.8467 30.4508 11.56C30.5374 11.2733 30.6274 10.98 30.7208 10.68L32.4208 5.18C32.4608 5.04667 32.5374 4.93667 32.6508 4.85C32.7708 4.76333 32.9141 4.72 33.0808 4.72H34.1708C34.3441 4.72 34.4908 4.76333 34.6108 4.85C34.7374 4.93667 34.8208 5.04667 34.8608 5.18L36.5108 10.68C36.5974 10.98 36.6774 11.2767 36.7508 11.57C36.8308 11.8567 36.9074 12.1433 36.9808 12.43C37.0674 11.8633 37.1908 11.28 37.3508 10.68L38.8608 5.2C38.9074 5.06667 38.9908 4.95667 39.1108 4.87C39.2308 4.78333 39.3741 4.74 39.5408 4.74H41.4208ZM48.1088 10.62C47.3954 10.6533 46.7954 10.7167 46.3088 10.81C45.8221 10.8967 45.4321 11.01 45.1388 11.15C44.8454 11.29 44.6354 11.4533 44.5088 11.64C44.3821 11.8267 44.3188 12.03 44.3188 12.25C44.3188 12.6833 44.4454 12.9933 44.6988 13.18C44.9588 13.3667 45.2954 13.46 45.7088 13.46C46.2154 13.46 46.6521 13.37 47.0188 13.19C47.3921 13.0033 47.7554 12.7233 48.1088 12.35V10.62ZM42.4488 6.17C43.6288 5.09 45.0488 4.55 46.7088 4.55C47.3088 4.55 47.8454 4.65 48.3188 4.85C48.7921 5.04333 49.1921 5.31667 49.5188 5.67C49.8454 6.01667 50.0921 6.43333 50.2588 6.92C50.4321 7.40667 50.5188 7.94 50.5188 8.52V15H49.3988C49.1654 15 48.9854 14.9667 48.8588 14.9C48.7321 14.8267 48.6321 14.6833 48.5588 14.47L48.3388 13.73C48.0788 13.9633 47.8254 14.17 47.5788 14.35C47.3321 14.5233 47.0754 14.67 46.8088 14.79C46.5421 14.91 46.2554 15 45.9488 15.06C45.6488 15.1267 45.3154 15.16 44.9488 15.16C44.5154 15.16 44.1154 15.1033 43.7488 14.99C43.3821 14.87 43.0654 14.6933 42.7988 14.46C42.5321 14.2267 42.3254 13.9367 42.1788 13.59C42.0321 13.2433 41.9588 12.84 41.9588 12.38C41.9588 12.12 42.0021 11.8633 42.0888 11.61C42.1754 11.35 42.3154 11.1033 42.5088 10.87C42.7088 10.6367 42.9654 10.4167 43.2788 10.21C43.5921 10.0033 43.9754 9.82333 44.4288 9.67C44.8888 9.51667 45.4221 9.39333 46.0288 9.3C46.6354 9.2 47.3288 9.14 48.1088 9.12V8.52C48.1088 7.83333 47.9621 7.32667 47.6688 7C47.3754 6.66667 46.9521 6.5 46.3988 6.5C45.9988 6.5 45.6654 6.54667 45.3988 6.64C45.1388 6.73333 44.9088 6.84 44.7088 6.96C44.5088 7.07333 44.3254 7.17667 44.1588 7.27C43.9988 7.36333 43.8188 7.41 43.6188 7.41C43.4454 7.41 43.2988 7.36667 43.1788 7.28C43.0588 7.18667 42.9621 7.08 42.8888 6.96L42.4488 6.17ZM60.7983 15H58.0983V0.539999H60.7983V15ZM65.9595 12.34C66.2395 12.68 66.5429 12.92 66.8695 13.06C67.2029 13.2 67.5529 13.27 67.9195 13.27C68.2995 13.27 68.6395 13.2033 68.9395 13.07C69.2462 12.93 69.5062 12.7167 69.7195 12.43C69.9329 12.1367 70.0962 11.7667 70.2095 11.32C70.3229 10.8667 70.3795 10.3267 70.3795 9.7C70.3795 8.57333 70.1929 7.76 69.8195 7.26C69.4462 6.75333 68.9095 6.5 68.2095 6.5C67.7362 6.5 67.3229 6.61 66.9695 6.83C66.6162 7.04333 66.2795 7.34667 65.9595 7.74V12.34ZM65.9595 6C66.3729 5.56667 66.8295 5.22333 67.3295 4.97C67.8362 4.71 68.4129 4.58 69.0595 4.58C69.6529 4.58 70.1862 4.69667 70.6595 4.93C71.1395 5.16333 71.5462 5.5 71.8795 5.94C72.2195 6.37333 72.4795 6.9 72.6595 7.52C72.8395 8.14 72.9295 8.83667 72.9295 9.61C72.9295 10.4433 72.8262 11.2 72.6195 11.88C72.4129 12.56 72.1162 13.1433 71.7295 13.63C71.3495 14.11 70.8895 14.4833 70.3495 14.75C69.8095 15.0167 69.2095 15.15 68.5495 15.15C68.2295 15.15 67.9395 15.1167 67.6795 15.05C67.4195 14.99 67.1795 14.9033 66.9595 14.79C66.7395 14.6767 66.5362 14.54 66.3495 14.38C66.1695 14.2133 65.9962 14.03 65.8295 13.83L65.7195 14.52C65.6795 14.6933 65.6095 14.8167 65.5095 14.89C65.4162 14.9633 65.2862 15 65.1195 15H63.4895V0.139999H65.9595V6ZM79.3772 4.58C80.1372 4.58 80.8272 4.70333 81.4472 4.95C82.0739 5.19667 82.6072 5.54667 83.0472 6C83.4939 6.45333 83.8372 7.00667 84.0772 7.66C84.3172 8.31333 84.4372 9.04333 84.4372 9.85C84.4372 10.6633 84.3172 11.3967 84.0772 12.05C83.8372 12.7033 83.4939 13.26 83.0472 13.72C82.6072 14.18 82.0739 14.5333 81.4472 14.78C80.8272 15.0267 80.1372 15.15 79.3772 15.15C78.6105 15.15 77.9139 15.0267 77.2872 14.78C76.6605 14.5333 76.1239 14.18 75.6772 13.72C75.2372 13.26 74.8939 12.7033 74.6472 12.05C74.4072 11.3967 74.2872 10.6633 74.2872 9.85C74.2872 9.04333 74.4072 8.31333 74.6472 7.66C74.8939 7.00667 75.2372 6.45333 75.6772 6C76.1239 5.54667 76.6605 5.19667 77.2872 4.95C77.9139 4.70333 78.6105 4.58 79.3772 4.58ZM79.3772 13.25C80.2305 13.25 80.8605 12.9633 81.2672 12.39C81.6805 11.8167 81.8872 10.9767 81.8872 9.87C81.8872 8.76333 81.6805 7.92 81.2672 7.34C80.8605 6.76 80.2305 6.47 79.3772 6.47C78.5105 6.47 77.8672 6.76333 77.4472 7.35C77.0339 7.93 76.8272 8.77 76.8272 9.87C76.8272 10.97 77.0339 11.81 77.4472 12.39C77.8672 12.9633 78.5105 13.25 79.3772 13.25ZM86.3216 15V4.74H87.8316C88.1516 4.74 88.3616 4.89 88.4616 5.19L88.6216 5.95C88.8016 5.75 88.9882 5.56667 89.1816 5.4C89.3816 5.23333 89.5916 5.09 89.8116 4.97C90.0382 4.85 90.2782 4.75667 90.5316 4.69C90.7916 4.61667 91.0749 4.58 91.3816 4.58C92.0282 4.58 92.5582 4.75667 92.9716 5.11C93.3916 5.45667 93.7049 5.92 93.9116 6.5C94.0716 6.16 94.2716 5.87 94.5116 5.63C94.7516 5.38333 95.0149 5.18333 95.3016 5.03C95.5882 4.87667 95.8916 4.76333 96.2116 4.69C96.5382 4.61667 96.8649 4.58 97.1916 4.58C97.7582 4.58 98.2616 4.66667 98.7016 4.84C99.1416 5.01333 99.5116 5.26667 99.8116 5.6C100.112 5.93333 100.338 6.34 100.492 6.82C100.652 7.3 100.732 7.85 100.732 8.47V15H98.2616V8.47C98.2616 7.81667 98.1182 7.32667 97.8316 7C97.5449 6.66667 97.1249 6.5 96.5716 6.5C96.3182 6.5 96.0816 6.54333 95.8616 6.63C95.6482 6.71667 95.4582 6.84333 95.2916 7.01C95.1316 7.17 95.0049 7.37333 94.9116 7.62C94.8182 7.86667 94.7716 8.15 94.7716 8.47V15H92.2916V8.47C92.2916 7.78333 92.1516 7.28333 91.8716 6.97C91.5982 6.65667 91.1949 6.5 90.6616 6.5C90.3016 6.5 89.9649 6.59 89.6516 6.77C89.3449 6.94333 89.0582 7.18333 88.7916 7.49V15H86.3216ZM116.033 3.17C115.953 3.31 115.866 3.41333 115.773 3.48C115.686 3.54 115.576 3.57 115.443 3.57C115.303 3.57 115.149 3.52 114.983 3.42C114.823 3.31333 114.629 3.19667 114.403 3.07C114.176 2.94333 113.909 2.83 113.603 2.73C113.303 2.62333 112.946 2.57 112.533 2.57C112.159 2.57 111.833 2.61667 111.553 2.71C111.273 2.79667 111.036 2.92 110.843 3.08C110.656 3.24 110.516 3.43333 110.423 3.66C110.329 3.88 110.283 4.12333 110.283 4.39C110.283 4.73 110.376 5.01333 110.563 5.24C110.756 5.46667 111.009 5.66 111.323 5.82C111.636 5.98 111.993 6.12333 112.393 6.25C112.793 6.37667 113.203 6.51333 113.623 6.66C114.043 6.8 114.453 6.96667 114.853 7.16C115.253 7.34667 115.609 7.58667 115.923 7.88C116.236 8.16667 116.486 8.52 116.673 8.94C116.866 9.36 116.963 9.87 116.963 10.47C116.963 11.1233 116.849 11.7367 116.623 12.31C116.403 12.8767 116.076 13.3733 115.643 13.8C115.216 14.22 114.693 14.5533 114.073 14.8C113.453 15.04 112.743 15.16 111.943 15.16C111.483 15.16 111.029 15.1133 110.583 15.02C110.136 14.9333 109.706 14.8067 109.293 14.64C108.886 14.4733 108.503 14.2733 108.143 14.04C107.783 13.8067 107.463 13.5467 107.183 13.26L107.973 11.97C108.039 11.8767 108.126 11.8 108.233 11.74C108.339 11.6733 108.453 11.64 108.573 11.64C108.739 11.64 108.919 11.71 109.113 11.85C109.306 11.9833 109.536 12.1333 109.803 12.3C110.069 12.4667 110.379 12.62 110.733 12.76C111.093 12.8933 111.523 12.96 112.023 12.96C112.789 12.96 113.383 12.78 113.803 12.42C114.223 12.0533 114.433 11.53 114.433 10.85C114.433 10.47 114.336 10.16 114.143 9.92C113.956 9.68 113.706 9.48 113.393 9.32C113.079 9.15333 112.723 9.01333 112.323 8.9C111.923 8.78667 111.516 8.66333 111.103 8.53C110.689 8.39667 110.283 8.23667 109.883 8.05C109.483 7.86333 109.126 7.62 108.813 7.32C108.499 7.02 108.246 6.64667 108.053 6.2C107.866 5.74667 107.773 5.19 107.773 4.53C107.773 4.00333 107.876 3.49 108.083 2.99C108.296 2.49 108.603 2.04667 109.003 1.66C109.403 1.27333 109.896 0.963333 110.483 0.73C111.069 0.496666 111.743 0.38 112.503 0.38C113.356 0.38 114.143 0.513333 114.863 0.779999C115.583 1.04667 116.196 1.42 116.703 1.9L116.033 3.17ZM121.89 15.16C120.997 15.16 120.31 14.91 119.83 14.41C119.357 13.9033 119.12 13.2067 119.12 12.32V6.59H118.07C117.937 6.59 117.823 6.54667 117.73 6.46C117.637 6.37333 117.59 6.24333 117.59 6.07V5.09L119.24 4.82L119.76 2.02C119.793 1.88667 119.857 1.78333 119.95 1.71C120.043 1.63667 120.163 1.6 120.31 1.6H121.59V4.83H124.33V6.59H121.59V12.15C121.59 12.47 121.667 12.72 121.82 12.9C121.98 13.08 122.197 13.17 122.47 13.17C122.623 13.17 122.75 13.1533 122.85 13.12C122.957 13.08 123.047 13.04 123.12 13C123.2 12.96 123.27 12.9233 123.33 12.89C123.39 12.85 123.45 12.83 123.51 12.83C123.583 12.83 123.643 12.85 123.69 12.89C123.737 12.9233 123.787 12.9767 123.84 13.05L124.58 14.25C124.22 14.55 123.807 14.7767 123.34 14.93C122.873 15.0833 122.39 15.16 121.89 15.16ZM131.331 10.62C130.618 10.6533 130.018 10.7167 129.531 10.81C129.045 10.8967 128.655 11.01 128.361 11.15C128.068 11.29 127.858 11.4533 127.731 11.64C127.605 11.8267 127.541 12.03 127.541 12.25C127.541 12.6833 127.668 12.9933 127.921 13.18C128.181 13.3667 128.518 13.46 128.931 13.46C129.438 13.46 129.875 13.37 130.241 13.19C130.615 13.0033 130.978 12.7233 131.331 12.35V10.62ZM125.671 6.17C126.851 5.09 128.271 4.55 129.931 4.55C130.531 4.55 131.068 4.65 131.541 4.85C132.015 5.04333 132.415 5.31667 132.741 5.67C133.068 6.01667 133.315 6.43333 133.481 6.92C133.655 7.40667 133.741 7.94 133.741 8.52V15H132.621C132.388 15 132.208 14.9667 132.081 14.9C131.955 14.8267 131.855 14.6833 131.781 14.47L131.561 13.73C131.301 13.9633 131.048 14.17 130.801 14.35C130.555 14.5233 130.298 14.67 130.031 14.79C129.765 14.91 129.478 15 129.171 15.06C128.871 15.1267 128.538 15.16 128.171 15.16C127.738 15.16 127.338 15.1033 126.971 14.99C126.605 14.87 126.288 14.6933 126.021 14.46C125.755 14.2267 125.548 13.9367 125.401 13.59C125.255 13.2433 125.181 12.84 125.181 12.38C125.181 12.12 125.225 11.8633 125.311 11.61C125.398 11.35 125.538 11.1033 125.731 10.87C125.931 10.6367 126.188 10.4167 126.501 10.21C126.815 10.0033 127.198 9.82333 127.651 9.67C128.111 9.51667 128.645 9.39333 129.251 9.3C129.858 9.2 130.551 9.14 131.331 9.12V8.52C131.331 7.83333 131.185 7.32667 130.891 7C130.598 6.66667 130.175 6.5 129.621 6.5C129.221 6.5 128.888 6.54667 128.621 6.64C128.361 6.73333 128.131 6.84 127.931 6.96C127.731 7.07333 127.548 7.17667 127.381 7.27C127.221 7.36333 127.041 7.41 126.841 7.41C126.668 7.41 126.521 7.36667 126.401 7.28C126.281 7.18667 126.185 7.08 126.111 6.96L125.671 6.17ZM139.351 15.16C138.458 15.16 137.771 14.91 137.291 14.41C136.818 13.9033 136.581 13.2067 136.581 12.32V6.59H135.531C135.398 6.59 135.284 6.54667 135.191 6.46C135.098 6.37333 135.051 6.24333 135.051 6.07V5.09L136.701 4.82L137.221 2.02C137.254 1.88667 137.318 1.78333 137.411 1.71C137.504 1.63667 137.624 1.6 137.771 1.6H139.051V4.83H141.791V6.59H139.051V12.15C139.051 12.47 139.128 12.72 139.281 12.9C139.441 13.08 139.658 13.17 139.931 13.17C140.084 13.17 140.211 13.1533 140.311 13.12C140.418 13.08 140.508 13.04 140.581 13C140.661 12.96 140.731 12.9233 140.791 12.89C140.851 12.85 140.911 12.83 140.971 12.83C141.044 12.83 141.104 12.85 141.151 12.89C141.198 12.9233 141.248 12.9767 141.301 13.05L142.041 14.25C141.681 14.55 141.268 14.7767 140.801 14.93C140.334 15.0833 139.851 15.16 139.351 15.16ZM149.904 8.69C149.904 8.37 149.858 8.07 149.764 7.79C149.678 7.50333 149.544 7.25333 149.364 7.04C149.184 6.82667 148.954 6.66 148.674 6.54C148.401 6.41333 148.081 6.35 147.714 6.35C147.001 6.35 146.438 6.55333 146.024 6.96C145.618 7.36667 145.358 7.94333 145.244 8.69H149.904ZM145.194 10.18C145.234 10.7067 145.328 11.1633 145.474 11.55C145.621 11.93 145.814 12.2467 146.054 12.5C146.294 12.7467 146.578 12.9333 146.904 13.06C147.238 13.18 147.604 13.24 148.004 13.24C148.404 13.24 148.748 13.1933 149.034 13.1C149.328 13.0067 149.581 12.9033 149.794 12.79C150.014 12.6767 150.204 12.5733 150.364 12.48C150.531 12.3867 150.691 12.34 150.844 12.34C151.051 12.34 151.204 12.4167 151.304 12.57L152.014 13.47C151.741 13.79 151.434 14.06 151.094 14.28C150.754 14.4933 150.398 14.6667 150.024 14.8C149.658 14.9267 149.281 15.0167 148.894 15.07C148.514 15.1233 148.144 15.15 147.784 15.15C147.071 15.15 146.408 15.0333 145.794 14.8C145.181 14.56 144.648 14.21 144.194 13.75C143.741 13.2833 143.384 12.71 143.124 12.03C142.864 11.3433 142.734 10.55 142.734 9.65C142.734 8.95 142.848 8.29333 143.074 7.68C143.301 7.06 143.624 6.52333 144.044 6.07C144.471 5.61 144.988 5.24667 145.594 4.98C146.208 4.71333 146.898 4.58 147.664 4.58C148.311 4.58 148.908 4.68333 149.454 4.89C150.001 5.09667 150.471 5.4 150.864 5.8C151.258 6.19333 151.564 6.68 151.784 7.26C152.011 7.83333 152.124 8.49 152.124 9.23C152.124 9.60333 152.084 9.85667 152.004 9.99C151.924 10.1167 151.771 10.18 151.544 10.18H145.194ZM14.53 33.75V39.6C13.7967 40.14 13.0133 40.5367 12.18 40.79C11.3533 41.0367 10.4667 41.16 9.52 41.16C8.34 41.16 7.27 40.9767 6.31 40.61C5.35667 40.2433 4.54 39.7333 3.86 39.08C3.18667 38.4267 2.66667 37.6467 2.3 36.74C1.93333 35.8333 1.75 34.8433 1.75 33.77C1.75 32.6833 1.92667 31.6867 2.28 30.78C2.63333 29.8733 3.13333 29.0933 3.78 28.44C4.43333 27.7867 5.22333 27.28 6.15 26.92C7.07667 26.56 8.11667 26.38 9.27 26.38C9.85667 26.38 10.4033 26.4267 10.91 26.52C11.4233 26.6133 11.8967 26.7433 12.33 26.91C12.77 27.07 13.17 27.2667 13.53 27.5C13.89 27.7333 14.22 27.99 14.52 28.27L13.75 29.49C13.63 29.6833 13.4733 29.8033 13.28 29.85C13.0867 29.89 12.8767 29.84 12.65 29.7C12.43 29.5733 12.21 29.4467 11.99 29.32C11.77 29.1933 11.5233 29.0833 11.25 28.99C10.9833 28.8967 10.68 28.82 10.34 28.76C10.0067 28.7 9.62 28.67 9.18 28.67C8.46667 28.67 7.82 28.79 7.24 29.03C6.66667 29.27 6.17667 29.6133 5.77 30.06C5.36333 30.5067 5.05 31.0433 4.83 31.67C4.61 32.2967 4.5 32.9967 4.5 33.77C4.5 34.5967 4.61667 35.3367 4.85 35.99C5.09 36.6367 5.42333 37.1867 5.85 37.64C6.28333 38.0867 6.80333 38.43 7.41 38.67C8.01667 38.9033 8.69333 39.02 9.44 39.02C9.97333 39.02 10.45 38.9633 10.87 38.85C11.29 38.7367 11.7 38.5833 12.1 38.39V35.77H10.28C10.1067 35.77 9.97 35.7233 9.87 35.63C9.77667 35.53 9.73 35.41 9.73 35.27V33.75H14.53ZM21.1545 30.58C21.9145 30.58 22.6045 30.7033 23.2245 30.95C23.8512 31.1967 24.3845 31.5467 24.8245 32C25.2712 32.4533 25.6145 33.0067 25.8545 33.66C26.0945 34.3133 26.2145 35.0433 26.2145 35.85C26.2145 36.6633 26.0945 37.3967 25.8545 38.05C25.6145 38.7033 25.2712 39.26 24.8245 39.72C24.3845 40.18 23.8512 40.5333 23.2245 40.78C22.6045 41.0267 21.9145 41.15 21.1545 41.15C20.3879 41.15 19.6912 41.0267 19.0645 40.78C18.4379 40.5333 17.9012 40.18 17.4545 39.72C17.0145 39.26 16.6712 38.7033 16.4245 38.05C16.1845 37.3967 16.0645 36.6633 16.0645 35.85C16.0645 35.0433 16.1845 34.3133 16.4245 33.66C16.6712 33.0067 17.0145 32.4533 17.4545 32C17.9012 31.5467 18.4379 31.1967 19.0645 30.95C19.6912 30.7033 20.3879 30.58 21.1545 30.58ZM21.1545 39.25C22.0079 39.25 22.6379 38.9633 23.0445 38.39C23.4579 37.8167 23.6645 36.9767 23.6645 35.87C23.6645 34.7633 23.4579 33.92 23.0445 33.34C22.6379 32.76 22.0079 32.47 21.1545 32.47C20.2879 32.47 19.6445 32.7633 19.2245 33.35C18.8112 33.93 18.6045 34.77 18.6045 35.87C18.6045 36.97 18.8112 37.81 19.2245 38.39C19.6445 38.9633 20.2879 39.25 21.1545 39.25ZM37.0364 30.74L32.9664 41H30.7264L26.6564 30.74H28.6964C28.8831 30.74 29.0364 30.7833 29.1564 30.87C29.2831 30.9567 29.3664 31.0667 29.4064 31.2L31.3864 36.68C31.4931 37 31.5864 37.3133 31.6664 37.62C31.7464 37.9267 31.8164 38.2333 31.8764 38.54C31.9431 38.2333 32.0164 37.9267 32.0964 37.62C32.1764 37.3133 32.2731 37 32.3864 36.68L34.4064 31.2C34.4531 31.0667 34.5364 30.9567 34.6564 30.87C34.7764 30.7833 34.9197 30.74 35.0864 30.74H37.0364ZM44.6503 34.69C44.6503 34.37 44.6036 34.07 44.5103 33.79C44.4236 33.5033 44.2903 33.2533 44.1103 33.04C43.9303 32.8267 43.7003 32.66 43.4203 32.54C43.147 32.4133 42.827 32.35 42.4603 32.35C41.747 32.35 41.1836 32.5533 40.7703 32.96C40.3636 33.3667 40.1036 33.9433 39.9903 34.69H44.6503ZM39.9403 36.18C39.9803 36.7067 40.0736 37.1633 40.2203 37.55C40.367 37.93 40.5603 38.2467 40.8003 38.5C41.0403 38.7467 41.3236 38.9333 41.6503 39.06C41.9836 39.18 42.3503 39.24 42.7503 39.24C43.1503 39.24 43.4936 39.1933 43.7803 39.1C44.0736 39.0067 44.327 38.9033 44.5403 38.79C44.7603 38.6767 44.9503 38.5733 45.1103 38.48C45.277 38.3867 45.437 38.34 45.5903 38.34C45.797 38.34 45.9503 38.4167 46.0503 38.57L46.7603 39.47C46.487 39.79 46.1803 40.06 45.8403 40.28C45.5003 40.4933 45.1436 40.6667 44.7703 40.8C44.4036 40.9267 44.027 41.0167 43.6403 41.07C43.2603 41.1233 42.8903 41.15 42.5303 41.15C41.817 41.15 41.1536 41.0333 40.5403 40.8C39.927 40.56 39.3936 40.21 38.9403 39.75C38.487 39.2833 38.1303 38.71 37.8703 38.03C37.6103 37.3433 37.4803 36.55 37.4803 35.65C37.4803 34.95 37.5936 34.2933 37.8203 33.68C38.047 33.06 38.3703 32.5233 38.7903 32.07C39.217 31.61 39.7336 31.2467 40.3403 30.98C40.9536 30.7133 41.6436 30.58 42.4103 30.58C43.057 30.58 43.6536 30.6833 44.2003 30.89C44.747 31.0967 45.217 31.4 45.6103 31.8C46.0036 32.1933 46.3103 32.68 46.5303 33.26C46.757 33.8333 46.8703 34.49 46.8703 35.23C46.8703 35.6033 46.8303 35.8567 46.7503 35.99C46.6703 36.1167 46.517 36.18 46.2903 36.18H39.9403ZM51.0539 32.52C51.3739 31.9067 51.7539 31.4267 52.1939 31.08C52.6339 30.7267 53.1539 30.55 53.7539 30.55C54.2272 30.55 54.6072 30.6533 54.8939 30.86L54.7339 32.71C54.7006 32.83 54.6506 32.9167 54.5839 32.97C54.5239 33.0167 54.4406 33.04 54.3339 33.04C54.2339 33.04 54.0839 33.0233 53.8839 32.99C53.6906 32.9567 53.5006 32.94 53.3139 32.94C53.0406 32.94 52.7972 32.98 52.5839 33.06C52.3706 33.14 52.1772 33.2567 52.0039 33.41C51.8372 33.5567 51.6872 33.7367 51.5539 33.95C51.4272 34.1633 51.3072 34.4067 51.1939 34.68V41H48.7239V30.74H50.1739C50.4272 30.74 50.6039 30.7867 50.7039 30.88C50.8039 30.9667 50.8706 31.1267 50.9039 31.36L51.0539 32.52ZM58.4948 32C58.7015 31.7933 58.9182 31.6033 59.1448 31.43C59.3782 31.25 59.6215 31.1 59.8748 30.98C60.1348 30.8533 60.4115 30.7567 60.7048 30.69C60.9982 30.6167 61.3182 30.58 61.6648 30.58C62.2248 30.58 62.7215 30.6767 63.1548 30.87C63.5882 31.0567 63.9482 31.3233 64.2348 31.67C64.5282 32.01 64.7482 32.42 64.8948 32.9C65.0482 33.3733 65.1248 33.8967 65.1248 34.47V41H62.6548V34.47C62.6548 33.8433 62.5115 33.36 62.2248 33.02C61.9382 32.6733 61.5015 32.5 60.9148 32.5C60.4882 32.5 60.0882 32.5967 59.7148 32.79C59.3415 32.9833 58.9882 33.2467 58.6548 33.58V41H56.1848V30.74H57.6948C58.0148 30.74 58.2248 30.89 58.3248 31.19L58.4948 32ZM67.4739 41V30.74H68.9839C69.3039 30.74 69.5139 30.89 69.6139 31.19L69.7739 31.95C69.9539 31.75 70.1406 31.5667 70.3339 31.4C70.5339 31.2333 70.7439 31.09 70.9639 30.97C71.1906 30.85 71.4306 30.7567 71.6839 30.69C71.9439 30.6167 72.2272 30.58 72.5339 30.58C73.1806 30.58 73.7106 30.7567 74.1239 31.11C74.5439 31.4567 74.8572 31.92 75.0639 32.5C75.2239 32.16 75.4239 31.87 75.6639 31.63C75.9039 31.3833 76.1672 31.1833 76.4539 31.03C76.7406 30.8767 77.0439 30.7633 77.3639 30.69C77.6906 30.6167 78.0172 30.58 78.3439 30.58C78.9106 30.58 79.4139 30.6667 79.8539 30.84C80.2939 31.0133 80.6639 31.2667 80.9639 31.6C81.2639 31.9333 81.4906 32.34 81.6439 32.82C81.8039 33.3 81.8839 33.85 81.8839 34.47V41H79.4139V34.47C79.4139 33.8167 79.2706 33.3267 78.9839 33C78.6972 32.6667 78.2772 32.5 77.7239 32.5C77.4706 32.5 77.2339 32.5433 77.0139 32.63C76.8006 32.7167 76.6106 32.8433 76.4439 33.01C76.2839 33.17 76.1572 33.3733 76.0639 33.62C75.9706 33.8667 75.9239 34.15 75.9239 34.47V41H73.4439V34.47C73.4439 33.7833 73.3039 33.2833 73.0239 32.97C72.7506 32.6567 72.3472 32.5 71.8139 32.5C71.4539 32.5 71.1172 32.59 70.8039 32.77C70.4972 32.9433 70.2106 33.1833 69.9439 33.49V41H67.4739ZM90.8417 34.69C90.8417 34.37 90.7951 34.07 90.7017 33.79C90.6151 33.5033 90.4817 33.2533 90.3017 33.04C90.1217 32.8267 89.8917 32.66 89.6117 32.54C89.3384 32.4133 89.0184 32.35 88.6517 32.35C87.9384 32.35 87.3751 32.5533 86.9617 32.96C86.5551 33.3667 86.2951 33.9433 86.1817 34.69H90.8417ZM86.1317 36.18C86.1717 36.7067 86.2651 37.1633 86.4117 37.55C86.5584 37.93 86.7517 38.2467 86.9917 38.5C87.2317 38.7467 87.5151 38.9333 87.8417 39.06C88.1751 39.18 88.5417 39.24 88.9417 39.24C89.3417 39.24 89.6851 39.1933 89.9717 39.1C90.2651 39.0067 90.5184 38.9033 90.7317 38.79C90.9517 38.6767 91.1417 38.5733 91.3017 38.48C91.4684 38.3867 91.6284 38.34 91.7817 38.34C91.9884 38.34 92.1417 38.4167 92.2417 38.57L92.9517 39.47C92.6784 39.79 92.3717 40.06 92.0317 40.28C91.6917 40.4933 91.3351 40.6667 90.9617 40.8C90.5951 40.9267 90.2184 41.0167 89.8317 41.07C89.4517 41.1233 89.0817 41.15 88.7217 41.15C88.0084 41.15 87.3451 41.0333 86.7317 40.8C86.1184 40.56 85.5851 40.21 85.1317 39.75C84.6784 39.2833 84.3217 38.71 84.0617 38.03C83.8017 37.3433 83.6717 36.55 83.6717 35.65C83.6717 34.95 83.7851 34.2933 84.0117 33.68C84.2384 33.06 84.5617 32.5233 84.9817 32.07C85.4084 31.61 85.9251 31.2467 86.5317 30.98C87.1451 30.7133 87.8351 30.58 88.6017 30.58C89.2484 30.58 89.8451 30.6833 90.3917 30.89C90.9384 31.0967 91.4084 31.4 91.8017 31.8C92.1951 32.1933 92.5017 32.68 92.7217 33.26C92.9484 33.8333 93.0617 34.49 93.0617 35.23C93.0617 35.6033 93.0217 35.8567 92.9417 35.99C92.8617 36.1167 92.7084 36.18 92.4817 36.18H86.1317ZM97.2253 32C97.432 31.7933 97.6486 31.6033 97.8753 31.43C98.1086 31.25 98.352 31.1 98.6053 30.98C98.8653 30.8533 99.142 30.7567 99.4353 30.69C99.7286 30.6167 100.049 30.58 100.395 30.58C100.955 30.58 101.452 30.6767 101.885 30.87C102.319 31.0567 102.679 31.3233 102.965 31.67C103.259 32.01 103.479 32.42 103.625 32.9C103.779 33.3733 103.855 33.8967 103.855 34.47V41H101.385V34.47C101.385 33.8433 101.242 33.36 100.955 33.02C100.669 32.6733 100.232 32.5 99.6453 32.5C99.2186 32.5 98.8186 32.5967 98.4453 32.79C98.072 32.9833 97.7186 33.2467 97.3853 33.58V41H94.9153V30.74H96.4253C96.7453 30.74 96.9553 30.89 97.0553 31.19L97.2253 32ZM109.488 41.16C108.594 41.16 107.908 40.91 107.428 40.41C106.954 39.9033 106.718 39.2067 106.718 38.32V32.59H105.668C105.534 32.59 105.421 32.5467 105.328 32.46C105.234 32.3733 105.188 32.2433 105.188 32.07V31.09L106.838 30.82L107.358 28.02C107.391 27.8867 107.454 27.7833 107.548 27.71C107.641 27.6367 107.761 27.6 107.908 27.6H109.188V30.83H111.928V32.59H109.188V38.15C109.188 38.47 109.264 38.72 109.418 38.9C109.578 39.08 109.794 39.17 110.068 39.17C110.221 39.17 110.348 39.1533 110.448 39.12C110.554 39.08 110.644 39.04 110.718 39C110.798 38.96 110.868 38.9233 110.928 38.89C110.988 38.85 111.048 38.83 111.108 38.83C111.181 38.83 111.241 38.85 111.288 38.89C111.334 38.9233 111.384 38.9767 111.438 39.05L112.178 40.25C111.818 40.55 111.404 40.7767 110.938 40.93C110.471 41.0833 109.988 41.16 109.488 41.16Z" fill="#333333"/>
</svg>
